<?xml version="1.0" encoding="utf-8"?>
<!-- Generator: Adobe Illustrator 16.0.0, SVG Export Plug-In . SVG Version: 6.00 Build 0)  -->
<!DOCTYPE svg PUBLIC "-//W3C//DTD SVG 1.1//EN" "http://www.w3.org/Graphics/SVG/1.1/DTD/svg11.dtd">
<svg version="1.1" id="Layer_1" xmlns="http://www.w3.org/2000/svg" xmlns:xlink="http://www.w3.org/1999/xlink" x="0px" y="0px"
	 width="500px" height="500px" viewBox="0 0 500 500" enable-background="new 0 0 500 500" xml:space="preserve">
<ellipse fill="#CCFFEA" stroke="#CCFFEA" stroke-width="16" stroke-miterlimit="10" cx="96.5" cy="229.755" rx="66.785" ry="65.908"/>
<ellipse fill="none" stroke="#FFFFFF" stroke-width="6" stroke-miterlimit="10" cx="96.5" cy="229.756" rx="71.456" ry="70.517"/>
<ellipse fill="none" stroke="#FFCAB2" stroke-width="16" stroke-miterlimit="10" cx="96.5" cy="229.756" rx="76.126" ry="75.127"/>
<g>
	<path fill="#FFFFFF" d="M93.129,214.882c1.877-1.853,4.959-1.853,6.789,0l27.879,27.513c1.878,1.854,4.43,5.228,5.682,7.555
		c0,0,1.637,2.995,1.637,7.319c0,10.501-8.667,19.91-19.308,19.054c-10.786-0.854-16.083-6.652-16.083-6.652
		c-1.782-1.948-4.67-1.948-6.404,0.048c0,0-6.259,7.032-16.13,6.748c-10.642-0.333-19.309-8.506-19.309-19.055
		c0-4.516,1.878-7.793,1.878-7.793c1.3-2.281,3.9-5.655,5.778-7.508L93.129,214.882z"/>
	<path fill="none" stroke="#FFCAB2" stroke-width="16" stroke-miterlimit="10" d="M93.129,214.882c1.877-1.853,4.959-1.853,6.789,0
		l27.879,27.513c1.878,1.854,4.43,5.228,5.682,7.555c0,0,1.637,2.995,1.637,7.319c0,10.501-8.667,19.91-19.308,19.054
		c-10.786-0.854-16.083-6.652-16.083-6.652c-1.782-1.948-4.67-1.948-6.404,0.048c0,0-6.259,7.032-16.13,6.748
		c-10.642-0.333-19.309-8.506-19.309-19.055c0-4.516,1.878-7.793,1.878-7.793c1.3-2.281,3.9-5.655,5.778-7.508L93.129,214.882z"/>
</g>
<path fill="#FFFFFF" stroke="#FFCAB2" stroke-width="16" stroke-miterlimit="10" d="M51.943,205.097
	c4.847-1.096,9.947,3.053,11.391,9.269c1.445,6.216-1.314,12.144-6.161,13.241c-4.848,1.097-9.948-3.053-11.392-9.269
	C44.337,212.122,47.096,206.193,51.943,205.097z"/>
<path fill="#FFFFFF" stroke="#FFCAB2" stroke-width="16" stroke-miterlimit="10" d="M76.835,178.256
	c4.848-1.097,9.947,3.053,11.392,9.269c1.444,6.216-1.314,12.145-6.161,13.241c-4.848,1.097-9.948-3.053-11.392-9.269
	C69.229,185.282,71.988,179.353,76.835,178.256z"/>
<path fill="#FFFFFF" stroke="#FFCAB2" stroke-width="16" stroke-miterlimit="10" d="M131.216,214.487
	c1.659-6.164,6.9-10.139,11.707-8.879s7.357,7.278,5.699,13.441c-1.658,6.164-6.899,10.139-11.706,8.879
	C132.109,226.669,129.558,220.651,131.216,214.487z"/>
<path fill="#FFFFFF" stroke="#FFCAB2" stroke-width="16" stroke-miterlimit="10" d="M105.678,187.211
	c1.659-6.164,6.9-10.138,11.706-8.879c4.807,1.26,7.358,7.277,5.699,13.441c-1.659,6.164-6.9,10.139-11.706,8.88
	C106.57,199.393,104.019,193.375,105.678,187.211z"/>
<g>
	<g>
		<path fill="#FFCAB2" stroke="#FFCAB2" stroke-width="3" stroke-miterlimit="10" d="M216.905,223.848
			c0,2.532-0.313,4.898-0.842,7.264c-0.525,2.363-1.262,4.392-2.313,5.91c-1.368,2.195-2.947,3.884-4.629,4.898
			c-1.684,1.181-4.209,1.351-4.209,1.351c-1.158,0.171-3.05,0.337-4.208,0.337h-1.367c-1.158,0-2.106,1.521-2.106,3.378v11.319
			c0,1.855-0.946,3.377-2.104,3.377h-4.523c-1.156,0-2.104-1.521-2.104-3.377v-48.474c0-1.856,0.948-3.377,2.104-3.377h10.414
			c1.158,0,3.054,0,4.209,0.17c0,0,1.894,0.169,3.472,0.674c1.473,0.677,2.841,1.521,3.999,2.703
			c1.367,1.518,2.419,3.377,3.156,5.575C216.485,217.939,216.905,220.641,216.905,223.848z M207.752,224.188
			c0-1.521-0.211-2.872-0.737-4.055c-0.526-1.181-1.157-1.857-1.788-2.365c-0.948-0.675-1.788-0.844-2.736-1.014
			c-0.841,0-1.367,0-1.367,0c-1.158,0-2.42,0-2.841,0c-0.42,0-0.734,1.521-0.734,3.379v9.794c0,1.858,0.526,3.378,1.262,3.378
			s2.208,0,3.365-0.167c0,0,0.632,0,1.578-0.338c0.948-0.34,1.789-0.845,2.421-1.858c0.526-0.844,0.946-1.688,1.262-2.872
			C207.541,227.058,207.752,225.707,207.752,224.188z"/>
		<path fill="#FFCAB2" stroke="#FFCAB2" stroke-width="3" stroke-miterlimit="10" d="M248.046,258.305
			c0,1.855-0.947,3.377-2.105,3.377h-20.619c-1.157,0-2.104-1.521-2.104-3.377v-48.474c0-1.856,0.947-3.377,2.104-3.377h20.727
			c1.156,0,2.104,1.521,2.104,3.377v3.886c0,1.858-0.947,3.376-2.104,3.376h-11.89c-1.156,0-2.104,1.52-2.104,3.377v2.703
			c0,1.858,0.948,3.377,2.104,3.377h10.731c1.159,0,2.106,1.52,2.106,3.377v3.887c0,1.857-0.947,3.377-2.106,3.377h-10.731
			c-1.156,0-2.104,1.518-2.104,3.377v6.925c0,1.857,0.948,3.377,2.104,3.377h11.89c1.156,0,2.104,1.52,2.104,3.376v4.058H248.046z"
			/>
		<path fill="#FFCAB2" stroke="#FFCAB2" stroke-width="3" stroke-miterlimit="10" d="M282.449,213.717
			c0,1.858-0.948,3.376-2.105,3.376h-6.523c-1.155,0-2.103,1.52-2.103,3.377v37.834c0,1.855-0.947,3.377-2.104,3.377h-4.629
			c-1.156,0-2.104-1.521-2.104-3.377V220.47c0-1.857-0.947-3.377-2.104-3.377h-6.523c-1.155,0-2.104-1.518-2.104-3.376v-3.886
			c0-1.856,0.948-3.377,2.104-3.377h26.197c1.157,0,2.104,1.521,2.104,3.377v3.886H282.449z"/>
		<path fill="#CCFFEA" stroke="#CCFFEA" stroke-width="3" stroke-miterlimit="10" d="M312.643,258.305
			c0,1.855-0.948,3.377-2.104,3.377h-20.726c-1.158,0-2.104-1.521-2.104-3.377v-48.474c0-1.856,0.945-3.377,2.104-3.377h20.726
			c1.155,0,2.104,1.521,2.104,3.377v3.886c0,1.858-0.948,3.376-2.104,3.376h-11.89c-1.155,0-2.104,1.52-2.104,3.377v2.703
			c0,1.858,0.948,3.377,2.104,3.377h10.731c1.158,0,2.104,1.52,2.104,3.377v3.887c0,1.857-0.945,3.377-2.104,3.377h-10.731
			c-1.155,0-2.104,1.518-2.104,3.377v6.925c0,1.857,0.948,3.377,2.104,3.377h11.89c1.155,0,2.104,1.52,2.104,3.376V258.305z"/>
		<path fill="#CCFFEA" stroke="#CCFFEA" stroke-width="3" stroke-miterlimit="10" d="M351.988,258.979
			c0.738,1.518,0.318,2.703-0.841,2.703h-6.629c-1.157,0-2.629-1.186-3.366-2.703l-6.837-14.863
			c-0.738-1.518-2.21-2.703-3.262-2.703s-2.104,1.52-2.104,3.378v13.514c0,1.855-0.947,3.377-2.106,3.377h-4.628
			c-1.158,0-2.104-1.521-2.104-3.377v-48.474c0-1.856,0.945-3.377,2.104-3.377h10.731c1.155,0,3.051,0,4.207,0.17
			c0,0,1.685,0,3.157,0.504c1.473,0.51,2.84,1.184,4.102,2.368c1.264,1.179,2.316,2.867,3.053,4.726
			c0.734,2.028,1.156,4.392,1.156,7.434c0,4.052-0.63,7.429-1.788,9.962c-1.157,2.533-3.261,4.562-3.261,4.562
			c-0.947,1.013-1.157,3.039-0.525,4.391L351.988,258.979z M339.468,223.344c0-1.354-0.208-2.533-0.525-3.548
			c-0.313-1.014-0.945-1.688-1.788-2.365c-0.63-0.338-1.262-0.677-2.104-0.677c-0.841-0.168-0.841-0.168-0.841-0.168
			c-1.053,0-2.736,0-3.576,0c-0.844,0-1.58,1.521-1.58,3.377v8.106c0,1.857,0.632,3.379,1.367,3.379c0.739,0,2.315,0,3.475-0.167
			c0,0,0.526,0,1.472-0.17s1.787-0.677,2.42-1.521c0.63-0.845,1.052-1.689,1.367-2.533
			C339.26,226.213,339.468,224.863,339.468,223.344z"/>
		<path fill="#CCFFEA" stroke="#CCFFEA" stroke-width="3" stroke-miterlimit="10" d="M388.494,258.305
			c0,1.855-0.945,3.377-2.103,3.377h-4.313c-1.158,0-2.631-1.355-3.263-2.873l-12.414-32.258c-0.631-1.519-1.157-1.351-1.157,0.508
			v31.247c0,1.855-0.945,3.377-2.104,3.377h-3.894c-1.157,0-2.103-1.521-2.103-3.377v-48.474c0-1.856,0.945-3.377,2.103-3.377h6.418
			c1.157,0,2.629,1.351,3.261,2.872l10.311,26.007c0.632,1.52,1.157,1.353,1.157-0.507V210c0-1.859,0.945-3.377,2.104-3.377h3.894
			c1.157,0,2.103,1.518,2.103,3.377V258.305z"/>
		<path fill="#CCFFEA" stroke="#CCFFEA" stroke-width="3" stroke-miterlimit="10" d="M415.85,258.305
			c0,1.855-0.948,3.377-2.105,3.377h-15.885c-1.157,0-2.104-1.521-2.104-3.377v-3.043c0-1.859,0.946-3.377,2.104-3.377h1.472
			c1.158,0,2.104-1.519,2.104-3.377v-28.881c0-1.858-0.945-3.377-2.104-3.377h-1.472c-1.157,0-2.104-1.519-2.104-3.377v-3.042
			c0-1.856,0.946-3.377,2.104-3.377h15.991c1.155,0,2.104,1.521,2.104,3.377v3.042c0,1.858-0.948,3.377-2.104,3.377h-1.474
			c-1.158,0-2.104,1.519-2.104,3.377v28.881c0,1.858,0.946,3.377,2.104,3.377h1.474c1.155,0,2.104,1.518,2.104,3.377v3.043H415.85z"
			/>
		<path fill="#CCFFEA" stroke="#CCFFEA" stroke-width="3" stroke-miterlimit="10" d="M450.041,213.717
			c0,1.858-0.947,3.376-2.105,3.376h-6.521c-1.157,0-2.104,1.52-2.104,3.377v37.834c0,1.855-0.947,3.377-2.103,3.377h-4.63
			c-1.158,0-2.104-1.521-2.104-3.377V220.47c0-1.857-0.948-3.377-2.104-3.377h-6.524c-1.157,0-2.104-1.518-2.104-3.376v-3.886
			c0-1.856,0.947-3.377,2.104-3.377h26.196c1.156,0,2.104,1.521,2.104,3.377v3.886H450.041z"/>
		<path fill="#CCFFEA" stroke="#CCFFEA" stroke-width="3" stroke-miterlimit="10" d="M483.496,206.454
			c1.157,0,1.577,1.351,1.051,2.872l-10.519,28.036c-0.632,1.519-1.054,4.392-1.054,6.247v14.697c0,1.855-0.947,3.377-2.103,3.377
			h-4.63c-1.157,0-2.104-1.521-2.104-3.377v-14.019c0-1.858-0.525-4.73-1.051-6.25l-10.732-28.71
			c-0.631-1.521-0.104-2.872,1.052-2.872h5.893c1.156,0,2.523,1.351,3.155,2.872l5.365,15.367c0.525,1.688,1.473,1.688,1.998,0
			l5.157-15.367c0.525-1.688,1.997-3.043,3.155-3.043h5.365V206.454z"/>
	</g>
</g>
</svg>
