<?xml version="1.0" encoding="utf-8"?>
<!-- Generator: Adobe Illustrator 21.0.0, SVG Export Plug-In . SVG Version: 6.00 Build 0)  -->
<svg version="1.1" id="Layer_1" xmlns="http://www.w3.org/2000/svg" xmlns:xlink="http://www.w3.org/1999/xlink" x="0px" y="0px"
	 viewBox="0 0 831 600" style="enable-background:new 0 0 831 600;" xml:space="preserve">
<style type="text/css">
	.st0{fill:#CCFFEA;stroke:#CCFFEA;stroke-width:16;stroke-miterlimit:10;}
	.st1{fill:none;stroke:#FFFFFF;stroke-width:6;stroke-miterlimit:10;}
	.st2{fill:none;stroke:#FFCAB2;stroke-width:16;stroke-miterlimit:10;}
	.st3{fill:#FFFFFF;}
	.st4{fill:#FFFFFF;stroke:#FFCAB2;stroke-width:16;stroke-miterlimit:10;}
	.st5{fill:#FFCAB2;stroke:#FFCAB2;stroke-width:3;stroke-miterlimit:10;}
	.st6{fill:#CCFFEA;stroke:#CCFFEA;stroke-width:3;stroke-miterlimit:10;}
</style>
<circle class="st0" cx="225.2" cy="238.1" r="138.7"/>
<circle class="st1" cx="225.2" cy="238.1" r="148.4"/>
<circle class="st2" cx="225.2" cy="238.1" r="158.1"/>
<g>
	<path class="st3" d="M218.2,206.8c3.9-3.9,10.3-3.9,14.1,0l57.9,57.9c3.9,3.9,9.2,11,11.8,15.9c0,0,3.4,6.3,3.4,15.4
		c0,22.1-18,41.9-40.1,40.1c-22.4-1.8-33.4-14-33.4-14c-3.7-4.1-9.7-4.1-13.3,0.1c0,0-13,14.8-33.5,14.2
		c-22.1-0.7-40.1-17.9-40.1-40.1c0-9.5,3.9-16.4,3.9-16.4c2.7-4.8,8.1-11.9,12-15.8L218.2,206.8z"/>
	<path class="st2" d="M218.2,206.8c3.9-3.9,10.3-3.9,14.1,0l57.9,57.9c3.9,3.9,9.2,11,11.8,15.9c0,0,3.4,6.3,3.4,15.4
		c0,22.1-18,41.9-40.1,40.1c-22.4-1.8-33.4-14-33.4-14c-3.7-4.1-9.7-4.1-13.3,0.1c0,0-13,14.8-33.5,14.2
		c-22.1-0.7-40.1-17.9-40.1-40.1c0-9.5,3.9-16.4,3.9-16.4c2.7-4.8,8.1-11.9,12-15.8L218.2,206.8z"/>
</g>
<ellipse transform="matrix(0.9747 -0.2235 0.2235 0.9747 -43.4231 36.1676)" class="st4" cx="138.1" cy="209.9" rx="18.7" ry="24.3"/>
<ellipse transform="matrix(0.9747 -0.2235 0.2235 0.9747 -29.4911 46.3086)" class="st4" cx="189.8" cy="153.4" rx="18.7" ry="24.3"/>
<ellipse transform="matrix(0.2567 -0.9665 0.9665 0.2567 30.6729 461.4906)" class="st4" cx="315.4" cy="210.8" rx="24.3" ry="18.7"/>
<ellipse transform="matrix(0.2567 -0.9665 0.9665 0.2567 46.7167 367.5987)" class="st4" cx="262.4" cy="153.4" rx="24.3" ry="18.7"/>
<g>
	<g>
		<path class="st5" d="M113,433.6c0,1.5-0.3,2.9-0.8,4.3c-0.5,1.4-1.2,2.6-2.2,3.5c-1.3,1.3-2.8,2.3-4.4,2.9c-1.6,0.7-4,0.8-4,0.8
			c-1.1,0.1-2.9,0.2-4,0.2h-1.3c-1.1,0-2,0.9-2,2v6.7c0,1.1-0.9,2-2,2H88c-1.1,0-2-0.9-2-2v-28.7c0-1.1,0.9-2,2-2h9.9
			c1.1,0,2.9,0,4,0.1c0,0,1.8,0.1,3.3,0.4c1.4,0.4,2.7,0.9,3.8,1.6c1.3,0.9,2.3,2,3,3.3C112.6,430.1,113,431.7,113,433.6z
			 M104.3,433.8c0-0.9-0.2-1.7-0.7-2.4s-1.1-1.1-1.7-1.4c-0.9-0.4-1.7-0.5-2.6-0.6c-0.8,0-1.3,0-1.3,0c-1.1,0-2.3,0-2.7,0
			s-0.7,0.9-0.7,2v5.8c0,1.1,0.5,2,1.2,2s2.1,0,3.2-0.1c0,0,0.6,0,1.5-0.2c0.9-0.2,1.7-0.5,2.3-1.1c0.5-0.5,0.9-1,1.2-1.7
			C104.1,435.5,104.3,434.7,104.3,433.8z"/>
		<path class="st5" d="M142.6,454c0,1.1-0.9,2-2,2H121c-1.1,0-2-0.9-2-2v-28.7c0-1.1,0.9-2,2-2h19.7c1.1,0,2,0.9,2,2v2.3
			c0,1.1-0.9,2-2,2h-11.3c-1.1,0-2,0.9-2,2v1.6c0,1.1,0.9,2,2,2h10.2c1.1,0,2,0.9,2,2v2.3c0,1.1-0.9,2-2,2h-10.2c-1.1,0-2,0.9-2,2
			v4.1c0,1.1,0.9,2,2,2h11.3c1.1,0,2,0.9,2,2V454z"/>
		<path class="st5" d="M175.3,427.6c0,1.1-0.9,2-2,2h-6.2c-1.1,0-2,0.9-2,2V454c0,1.1-0.9,2-2,2h-4.4c-1.1,0-2-0.9-2-2v-22.4
			c0-1.1-0.9-2-2-2h-6.2c-1.1,0-2-0.9-2-2v-2.3c0-1.1,0.9-2,2-2h24.9c1.1,0,2,0.9,2,2V427.6z"/>
		<path class="st6" d="M204,454c0,1.1-0.9,2-2,2h-19.7c-1.1,0-2-0.9-2-2v-28.7c0-1.1,0.9-2,2-2H202c1.1,0,2,0.9,2,2v2.3
			c0,1.1-0.9,2-2,2h-11.3c-1.1,0-2,0.9-2,2v1.6c0,1.1,0.9,2,2,2h10.2c1.1,0,2,0.9,2,2v2.3c0,1.1-0.9,2-2,2h-10.2c-1.1,0-2,0.9-2,2
			v4.1c0,1.1,0.9,2,2,2H202c1.1,0,2,0.9,2,2V454z"/>
		<path class="st6" d="M241.4,454.4c0.7,0.9,0.3,1.6-0.8,1.6h-6.3c-1.1,0-2.5-0.7-3.2-1.6l-6.5-8.8c-0.7-0.9-2.1-1.6-3.1-1.6
			s-2,0.9-2,2v8c0,1.1-0.9,2-2,2h-4.4c-1.1,0-2-0.9-2-2v-28.7c0-1.1,0.9-2,2-2h10.2c1.1,0,2.9,0,4,0.1c0,0,1.6,0,3,0.3
			s2.7,0.7,3.9,1.4c1.2,0.7,2.2,1.7,2.9,2.8c0.7,1.2,1.1,2.6,1.1,4.4c0,2.4-0.6,4.4-1.7,5.9c-1.1,1.5-3.1,2.7-3.1,2.7
			c-0.9,0.6-1.1,1.8-0.5,2.6L241.4,454.4z M229.5,433.3c0-0.8-0.2-1.5-0.5-2.1s-0.9-1-1.7-1.4c-0.6-0.2-1.2-0.4-2-0.4
			c-0.8-0.1-0.8-0.1-0.8-0.1c-1,0-2.6,0-3.4,0s-1.5,0.9-1.5,2v4.8c0,1.1,0.6,2,1.3,2s2.2,0,3.3-0.1c0,0,0.5,0,1.4-0.1
			c0.9-0.1,1.7-0.4,2.3-0.9c0.6-0.5,1-1,1.3-1.5C229.3,435,229.5,434.2,229.5,433.3z"/>
		<path class="st6" d="M276.1,454c0,1.1-0.9,2-2,2h-4.1c-1.1,0-2.5-0.8-3.1-1.7l-11.8-19.1c-0.6-0.9-1.1-0.8-1.1,0.3V454
			c0,1.1-0.9,2-2,2h-3.7c-1.1,0-2-0.9-2-2v-28.7c0-1.1,0.9-2,2-2h6.1c1.1,0,2.5,0.8,3.1,1.7l9.8,15.4c0.6,0.9,1.1,0.8,1.1-0.3v-14.7
			c0-1.1,0.9-2,2-2h3.7c1.1,0,2,0.9,2,2V454z"/>
		<path class="st6" d="M302.1,454c0,1.1-0.9,2-2,2H285c-1.1,0-2-0.9-2-2v-1.8c0-1.1,0.9-2,2-2h1.4c1.1,0,2-0.9,2-2v-17.1
			c0-1.1-0.9-2-2-2H285c-1.1,0-2-0.9-2-2v-1.8c0-1.1,0.9-2,2-2h15.2c1.1,0,2,0.9,2,2v1.8c0,1.1-0.9,2-2,2h-1.4c-1.1,0-2,0.9-2,2
			v17.1c0,1.1,0.9,2,2,2h1.4c1.1,0,2,0.9,2,2V454z"/>
		<path class="st6" d="M334.6,427.6c0,1.1-0.9,2-2,2h-6.2c-1.1,0-2,0.9-2,2V454c0,1.1-0.9,2-2,2h-4.4c-1.1,0-2-0.9-2-2v-22.4
			c0-1.1-0.9-2-2-2h-6.2c-1.1,0-2-0.9-2-2v-2.3c0-1.1,0.9-2,2-2h24.9c1.1,0,2,0.9,2,2V427.6z"/>
		<path class="st6" d="M366.4,423.3c1.1,0,1.5,0.8,1,1.7l-10,16.6c-0.6,0.9-1,2.6-1,3.7v8.7c0,1.1-0.9,2-2,2h-4.4c-1.1,0-2-0.9-2-2
			v-8.3c0-1.1-0.5-2.8-1-3.7l-10.2-17c-0.6-0.9-0.1-1.7,1-1.7h5.6c1.1,0,2.4,0.8,3,1.7l5.1,9.1c0.5,1,1.4,1,1.9,0l4.9-9.1
			c0.5-1,1.9-1.8,3-1.8H366.4z"/>
	</g>
</g>
</svg>
